# xmcd CD database file
#
# Track frame offsets:
#	150
#	19343
#	32853
#	52055
#
# Disc length: 1056 seconds
#
# Revision: 7
# Processed by: cddbd v1.5.2PL0 Copyright (c) Steve Scherf et al.
# Submitted via: CDex 1.70beta2
#
DISCID=32041e04
DTITLE=ORANGE RANGE - *~Asterisk~
DYEAR=2005
DGENRE=JPop
TTITLE0=*~Asterisk~
TTITLE1=Mission in Daisakusen
TTITLE2=Spiral
TTITLE3=*~Asterisk~ (Romantic Ver.)
EXTD=YEAR: 2005
EXTT0=
EXTT1=
EXTT2=
EXTT3=
PLAYORDER=
